<?xml version="1.0" encoding="UTF-8"?>
<svg width="160px" height="67px" viewBox="0 0 160 67" version="1.1" xmlns="http://www.w3.org/2000/svg" xmlns:xlink="http://www.w3.org/1999/xlink">
    <!-- Generator: Sketch 54.1 (76490) - https://sketchapp.com -->
    <title>Group 57</title>
    <desc>Created with Sketch.</desc>
    <g id="Symbols" stroke="none" stroke-width="1" fill="none" fill-rule="evenodd">
        <g id="footer" transform="translate(-172.000000, -58.000000)">
            <g id="Group-57" transform="translate(172.000000, 58.000000)">
                <path d="M9.01643287,17.4008571 L16.092986,17.4008571 L12.5659319,6.58514286 L12.4825651,6.58514286 L9.0260521,17.4008571 L9.01643287,17.4008571 Z M-1.20792265e-13,27.6327143 L9.77635271,1.65201186e-13 L16.5611222,1.65201186e-13 L26.3791583,27.6327143 L26.3791583,29.352381 L20.0144289,29.352381 L17.5711423,21.8866667 L7.63126253,21.8866667 L5.2745491,29.352381 L-1.20792265e-13,29.352381 L-1.20792265e-13,27.6327143 Z" id="Shape" fill="#174D92"></path>
                <path d="M27.5751503,27.8018095 L27.5751503,23.2713333 L29.5150301,23.2713333 C30.5250501,24.193381 32.3783567,25.1154286 34.9498998,25.1154286 C37.4348697,25.1154286 38.7398798,24.4454286 38.7398798,23.0607619 C38.7398798,21.6760952 37.941483,21.0922381 34.8216433,20.7125714 C29.9767535,20.1255238 27.4052104,18.3229048 27.4052104,14.0125714 C27.4052104,9.5682381 30.7366733,7.09880952 36.1715431,7.09880952 C39.3779559,7.09880952 41.3563126,7.73690476 43.1230461,8.60471429 L43.1230461,13.0490476 L41.2697395,13.0490476 C40.2597194,12.2960952 38.4897796,11.5814286 36.2132265,11.5814286 C33.8116232,11.5814286 32.8849699,12.2960952 32.8849699,13.5531429 C32.8849699,14.6857619 33.9783567,15.2728095 37.0148297,15.6492857 C42.2829659,16.3192857 44.4729459,18.0389524 44.4729459,22.4832857 C44.4729459,26.8031905 41.6480962,29.6108095 35.2448898,29.6108095 C31.6184369,29.6012381 29.3034068,28.7653333 27.5751503,27.8018095 Z" id="Path" fill="#174D92"></path>
                <path d="M44.7551102,7.33809524 L47.3683367,7.33809524 L47.3683367,1.46761905 L53.5214429,1.46761905 L53.5214429,7.33809524 L57.987976,7.33809524 L57.987976,11.4474286 L53.5214429,11.4474286 L53.5214429,22.7257619 C53.5214429,24.8250952 54.361523,25.4121429 56.3847695,25.4121429 L58.0713427,25.4121429 L58.0713427,29.1003333 C56.8199008,29.506058 55.5109566,29.7085877 54.1947896,29.7001429 C49.9398798,29.7001429 47.3683367,28.0219524 47.3683367,23.4531905 L47.3683367,11.4474286 L44.7551102,11.4474286 L44.7551102,7.33809524 Z" id="Path" fill="#174D92"></path>
                <path d="M64.6957916,16.0161905 L72.955511,16.0161905 C72.8272545,12.1174286 71.4805611,10.860381 69.0789579,10.860381 C66.9274549,10.860381 65.157515,11.9100476 64.6957916,16.0161905 Z M64.6124248,19.7075714 C64.9042084,24.1104286 67.0140281,25.326 70.4256513,25.326 C72.5274974,25.3585286 74.583181,24.7114134 76.2837675,23.4819048 L78.1787575,23.4819048 L78.1787575,27.5082857 C76.4088176,28.5132857 73.9238477,29.6459048 69.498998,29.6459048 C62.252505,29.6459048 58.2765531,25.3674762 58.2765531,18.4505238 C58.2765531,11.3644762 62.9130261,7.00309524 69.0661323,7.00309524 C75.5527054,7.00309524 79.006012,10.5668571 79.006012,17.8188095 C79.006012,18.5749524 78.9226453,19.497 78.9226453,19.7075714 L64.6124248,19.7075714 Z" id="Shape" fill="#174D92"></path>
                <path d="M87.7306613,13.460619 L87.7306613,29.352381 L81.5807615,29.352381 L81.5807615,7.33809524 L85.7490982,7.33809524 C86.8008016,7.33809524 87.4356713,7.80071429 87.6440882,9.97980952 C89.0356713,8.51219048 91.0589178,7.12752381 93.7971944,7.12752381 C94.2549171,7.13369377 94.7094329,7.20459387 95.1470942,7.33809524 L95.1470942,12.1525238 L94.0921844,12.1525238 C91.0621242,12.1525238 88.9138277,12.8320952 87.7306613,13.460619 Z" id="Path" fill="#174D92"></path>
                <path d="M54.4801603,51.395381 C52.6749499,51.255 52.6973948,50.1191905 52.6973948,48.843 L52.6973948,45.633381 L47.1086172,45.633381 L47.1086172,51.4304762 C43.5815631,51.4304762 43.0172345,51.2900952 43.0172345,48.8525714 L43.0172345,36.856381 C46.4897796,36.856381 47.1086172,36.9967619 47.1086172,39.3864286 L47.1086172,42.3918571 L52.6973948,42.3918571 L52.6973948,36.856381 C56.1923848,36.856381 56.8112224,36.9744286 56.8112224,39.3864286 L56.8112224,51.4304762 C55.3362725,51.4304762 54.8617234,51.4304762 54.4801603,51.395381 Z" id="Path" fill="#00B38D"></path>
                <path d="M68.2741483,40.0500476 C64.660521,40.0500476 64.660521,40.0979048 64.660521,44.1657619 C64.660521,46.7181429 65.3242485,48.2846667 68.248497,48.2846667 C71.9134269,48.2846667 71.9134269,48.2623333 71.9134269,44.1912857 C71.9134269,41.613381 71.2721443,40.0436667 68.2741483,40.0436667 L68.2741483,40.0500476 Z M68.2741483,51.596381 C62.0440882,51.596381 60.5210421,47.978381 60.5210421,44.1657619 C60.5210421,40.3531429 62.0665331,36.7191905 68.248497,36.7191905 C74.5298597,36.7191905 76.0272545,40.3627143 76.0272545,44.1976667 C76.0272545,48.032619 74.5298597,51.596381 68.2741483,51.596381 Z" id="Shape" fill="#00B38D"></path>
                <path d="M85.111022,51.456 L79.4260521,51.456 C79.4260521,48.5462857 79.5927856,48.0709048 82.1867735,48.0709048 L85.0308617,48.0709048 C87.7659319,48.0709048 87.7659319,48.0007143 87.7659319,46.8872381 C87.7659319,45.895 86.1947896,45.7067619 85.3867735,45.5631905 C82.6837675,45.0144286 78.9386774,44.6411429 78.9386774,41.5049048 C78.9386774,38.5728571 81.1831663,36.8691429 85.5727455,36.8691429 L91.3026052,36.8691429 C91.3026052,39.8011905 91.0428858,40.2287143 88.5675351,40.2287143 L85.4765531,40.2287143 C83.0044088,40.2287143 83.0044088,40.2287143 83.0044088,41.5049048 C83.0044088,41.8239524 83.3250501,42.1685238 83.9310621,42.3344286 C86.9034068,43.0682381 91.8252505,43.1862857 91.8252505,46.9 C91.8156313,49.2067143 90.058517,51.456 85.111022,51.456 Z" id="Path" fill="#00B38D"></path>
                <path d="M101.447695,40.1904286 L99.3795591,40.1904286 L99.3795591,43.6457143 L101.47014,43.6457143 C104.086573,43.6457143 104.086573,43.6457143 104.086573,41.8718095 C104.086573,41.1156667 104.038477,40.1904286 101.447695,40.1904286 Z M101.543888,46.8904286 L99.3795591,46.8904286 L99.3795591,51.4336667 C96.0032064,51.4336667 95.2881764,51.4336667 95.2881764,48.8557619 L95.2881764,39.4598095 C95.2881764,36.9074286 95.8813627,36.9074286 98.5715431,36.9074286 L101.329058,36.9074286 C107.440481,36.9074286 108.226052,39.6990952 108.226052,41.875 C108.226052,43.9296667 107.703407,46.8872381 101.543888,46.8872381 L101.543888,46.8904286 Z" id="Shape" fill="#00B38D"></path>
                <path d="M111.935872,48.9004286 L111.935872,36.9042381 C115.382766,36.9042381 116.024048,36.9967619 116.024048,39.3417619 L116.024048,51.4304762 C112.529058,51.4304762 111.935872,51.2900952 111.935872,48.9004286 Z" id="Path" fill="#00B38D"></path>
                <path d="M128.698998,40.2287143 L127.297796,40.2287143 L127.297796,51.4464286 C123.825251,51.4464286 123.276954,51.3028571 123.276954,48.8940476 L123.276954,40.2287143 L119.044489,40.2287143 C119.044489,37.1275714 119.281764,36.917 121.683367,36.917 L131.482164,36.917 C131.482164,39.932 131.203206,40.2287143 128.698998,40.2287143 Z" id="Path" fill="#00B38D"></path>
                <path d="M139.068537,41.0678095 L137.237675,45.7769524 L140.92505,45.7769524 L139.068537,41.0678095 Z M144.775952,51.395381 C142.826453,51.2996667 142.682164,50.2595714 142.111423,48.8621429 L136.048096,48.8621429 C134.884168,51.8675714 134.550701,51.4145238 130.696593,51.4145238 L135.977555,38.8025714 C136.689379,37.0541905 137.022846,36.8404286 139.068537,36.8404286 L141.255311,36.8404286 L147.488577,51.4145238 C145.654509,51.4304762 145.157515,51.4304762 144.775952,51.395381 Z" id="Shape" fill="#00B38D"></path>
                <path d="M153.144689,51.4304762 C150.935471,51.4304762 150.031263,51.4783333 150.031263,48.9004286 L150.031263,36.9042381 C150.90982,36.9042381 152.766333,36.7606667 153.478156,37.2807143 C153.907816,37.5997619 154.074549,38.2027619 154.074549,39.4598095 L154.074549,48.166619 L156.902605,48.166619 C159.996794,48.166619 159.685772,49.1237619 159.685772,51.4304762 L153.144689,51.4304762 Z" id="Path" fill="#00B38D"></path>
                <path d="M11.1519038,51.4783333 C9.34028056,51.4783333 8.58677355,51.2900952 7.55430862,49.7969524 L4.88657315,45.9300952 C4.33827655,45.1005714 4.14589178,43.275619 6.1242485,43.275619 L7.00601202,43.275619 C8.74709419,43.275619 8.74709419,43.275619 8.74709419,41.7090952 C8.74709419,41.0933333 8.698998,40.2159524 6.1242485,40.2159524 L4.09779559,40.2159524 L4.09779559,51.4783333 C0.548296593,51.4783333 -6.76791956e-13,51.4783333 -6.76791956e-13,48.8940476 L-6.76791956e-13,39.4821429 C-6.76791956e-13,36.9297619 0.811222445,36.9297619 3.31222445,36.9297619 L5.98316633,36.9297619 C12.0112224,36.9297619 12.8673347,39.657619 12.8673347,41.7154762 C12.8673347,44.6794286 10.9627255,45.7482381 8.86573146,45.7482381 L14.2492986,51.4910952 L11.1519038,51.4783333 Z" id="Path" fill="#174D92"></path>
                <path d="M25.1639279,49.3694286 C24.4488978,50.9646667 24.3078156,51.4783333 22.1627255,51.4783333 L20.0657315,51.4783333 L13.7747495,36.8723333 C14.9162325,36.8723333 16.8945892,36.7287619 17.7763527,37.191381 C18.3983968,37.5104286 18.6837675,38.1868095 19.0877756,39.2077619 L22.1851703,47.3307143 L25.5935872,38.5090476 C26.0232465,37.3700476 26.593988,36.9138095 28.3350701,36.9138095 C28.8352705,36.9138095 29.0981964,36.8659524 30.6212425,36.8659524 L25.1639279,49.3694286 Z" id="Path" fill="#174D92"></path>
                <polygon id="Path" fill="#000000" points="0.641282565 59.4162381 1.92064128 65.8929048 2.25731463 65.8929048 3.74188377 59.4928095 4.48577154 59.4928095 5.96072144 65.8929048 6.29418838 65.8929048 7.57675351 59.4162381 8.21803607 59.4162381 6.76553106 66.4480476 5.50220441 66.4480476 4.11062124 60.2744762 2.71583166 66.4480476 1.45571142 66.4480476 -5.68434189e-13 59.4162381"></polygon>
                <path d="M12.7711423,65.9120476 L12.7903808,66.4065714 C12.7903808,66.4065714 11.642485,66.5501429 10.8665331,66.5501429 C9.3498998,66.5501429 8.89138277,65.6280952 8.89138277,63.9371429 C8.89138277,61.9845714 9.74749499,61.2858571 10.9883768,61.2858571 C12.2997996,61.2858571 12.9891784,61.9845714 12.9891784,63.6850952 L12.9699399,64.1700476 L9.49739479,64.1700476 C9.49739479,65.3664762 9.84048096,66.001381 10.9114228,66.001381 C11.6521042,66.001381 12.7711423,65.9120476 12.7711423,65.9120476 L12.7711423,65.9120476 Z M12.3639279,63.6627619 C12.3639279,62.3004286 11.9278557,61.8122857 10.9723447,61.8122857 C10.0168337,61.8122857 9.49739479,62.316381 9.49739479,63.6627619 L12.3639279,63.6627619 Z" id="Shape" fill="#000000"></path>
                <polygon id="Path" fill="#000000" points="14.345491 59.221619 14.9963928 59.221619 14.4064128 61.3560476 13.9190381 61.3560476"></polygon>
                <rect id="Rectangle" fill="#000000" x="16.2661323" y="59.1418571" width="1" height="7.30619048"></rect>
                <rect id="Rectangle" fill="#000000" x="18.5138277" y="59.1418571" width="1" height="7.30619048"></rect>
                <polygon id="Path" fill="#000000" points="22.3038076 59.4162381 27.3891784 59.4162381 27.3891784 59.9809524 25.1735471 59.9809524 25.1735471 66.4480476 24.5418838 66.4480476 24.5418838 59.9809524 22.3038076 59.9809524"></polygon>
                <path d="M27.3154309,61.3879524 L27.9150301,61.3879524 L27.9150301,62.115381 C28.496636,61.7181656 29.1498885,61.4364965 29.8388778,61.2858571 L29.8388778,61.8920476 C29.1649116,62.0539166 28.5172526,62.3095445 27.9150301,62.651381 L27.9150301,66.4480476 L27.3154309,66.4480476 L27.3154309,61.3879524 Z" id="Path" fill="#000000"></path>
                <path d="M34.3150301,65.9120476 L34.3150301,66.4065714 C34.3150301,66.4065714 33.1671343,66.5501429 32.3911824,66.5501429 C30.8745491,66.5501429 30.4160321,65.6280952 30.4160321,63.9371429 C30.4160321,61.9845714 31.2721443,61.2858571 32.5130261,61.2858571 C33.8276553,61.2858571 34.5170341,61.9845714 34.5170341,63.6850952 L34.4977956,64.1572857 L31.0412826,64.1572857 C31.0412826,65.3537143 31.3843687,65.988619 32.4521042,65.988619 C33.195992,65.988619 34.3150301,65.8992857 34.3150301,65.8992857 L34.3150301,65.9120476 Z M33.9078156,63.6627619 C33.9078156,62.3004286 33.4685371,61.8122857 32.5130261,61.8122857 C31.557515,61.8122857 31.0412826,62.316381 31.0412826,63.6627619 L33.9078156,63.6627619 Z" id="Shape" fill="#000000"></path>
                <path d="M39.2657315,65.6089524 C39.2945892,65.9120476 39.5863727,66.0109524 39.9262525,66.0524286 L39.8941884,66.5405714 C39.4700436,66.582043 39.0493505,66.4335444 38.7462926,66.135381 C38.1351967,66.3873158 37.4835358,66.5278072 36.8224449,66.5501429 C35.9278557,66.5501429 35.4308617,66.0332857 35.4308617,65.0187143 C35.4308617,64.0902857 35.898998,63.643619 36.9250501,63.5415238 L38.6533066,63.3692381 L38.6533066,62.8970476 C38.6533066,62.1249524 38.3102204,61.834619 37.6561122,61.834619 C36.9250501,61.834619 35.7322645,61.9845714 35.7322645,61.9845714 L35.7002004,61.499619 C36.3520044,61.3774254 37.0123867,61.3059552 37.6753507,61.2858571 C38.7847695,61.2858571 39.2529058,61.8218571 39.2529058,62.8970476 L39.2529058,65.6089524 L39.2657315,65.6089524 Z M37.0212425,64.0137143 C36.341483,64.0711429 36.0849699,64.3965714 36.0849699,65.0027619 C36.0849699,65.6089524 36.3703407,66.0269048 36.9314629,66.0269048 C37.5289409,66.0001233 38.1185471,65.8806353 38.6789579,65.6727619 L38.6789579,63.8382381 L37.0212425,64.0137143 Z" id="Shape" fill="#000000"></path>
                <path d="M41.7122244,61.9239524 L41.7122244,64.4252857 C41.7122244,65.7014762 41.7923848,66.0205238 42.5266533,66.0205238 C42.812024,66.0205238 43.4629259,65.9471429 43.4629259,65.9471429 L43.5014028,66.464 C43.1615324,66.5167799 42.8189946,66.5508635 42.4753507,66.5660952 C41.4685371,66.5660952 41.103006,66.189619 41.103006,64.7347619 L41.103006,61.9239524 L40.349499,61.9239524 L40.349499,61.3879524 L41.103006,61.3879524 L41.103006,59.7927143 L41.7122244,59.7927143 L41.7122244,61.3879524 L43.4116232,61.3879524 L43.4116232,61.9239524 L41.7122244,61.9239524 Z" id="Path" fill="#000000"></path>
                <polygon id="Path" fill="#000000" points="48.8721443 66.4480476 48.240481 66.4480476 48.240481 63.4713333 45.9735471 59.4162381 46.6725451 59.4162381 48.5547094 62.8236667 50.4272545 59.4162381 51.1390782 59.4162381 48.8721443 63.4713333"></polygon>
                <path d="M55.3587174,63.8382381 C55.3587174,65.7525238 54.9290581,66.5405714 53.2296593,66.5405714 C51.5302605,66.5405714 51.0941884,65.7493333 51.0941884,63.8382381 C51.0941884,62.0451905 51.6553106,61.2858571 53.2296593,61.2858571 C54.804008,61.2858571 55.3587174,62.0547619 55.3587174,63.8382381 Z M54.7398798,63.8382381 C54.7398798,62.3195714 54.3903808,61.8122857 53.2296593,61.8122857 C52.0689379,61.8122857 51.7258517,62.3195714 51.7258517,63.8382381 C51.7258517,65.3569048 51.9086172,66.0045714 53.2296593,66.0045714 C54.5507014,66.0045714 54.7398798,65.3951905 54.7398798,63.8382381 Z" id="Shape" fill="#000000"></path>
                <path d="M60.4825651,61.3879524 L60.4825651,66.4480476 L59.8797595,66.4480476 L59.8797595,66.0715714 C59.4037623,66.3524374 58.8673931,66.5164856 58.3150301,66.5501429 C56.901002,66.5501429 56.6156313,65.9120476 56.6156313,64.0296667 L56.6156313,61.3879524 L57.2152305,61.3879524 L57.2152305,64.0200952 C57.2152305,65.526 57.3691383,66.001381 58.3855711,66.001381 C58.9110654,65.983975 59.4241947,65.8382518 59.8797595,65.5770476 L59.8797595,61.3879524 L60.4825651,61.3879524 Z" id="Path" fill="#000000"></path>
                <polygon id="Path" fill="#000000" points="64.4553106 59.4162381 65.7378758 65.8929048 66.0713427 65.8929048 67.5559118 59.4928095 68.2997996 59.4928095 69.7747495 65.8929048 70.1114228 65.8929048 71.3907816 59.4162381 72.0320641 59.4162381 70.5763527 66.4480476 69.3162325 66.4480476 67.9246493 60.2744762 66.5298597 66.4480476 65.2697395 66.4480476 63.8140281 59.4162381"></polygon>
                <path d="M76.5851703,65.9120476 L76.6044088,66.4065714 C76.6044088,66.4065714 75.456513,66.5501429 74.6645291,66.5501429 C73.1478958,66.5501429 72.6893788,65.6280952 72.6893788,63.9371429 C72.6893788,61.9845714 73.545491,61.2858571 74.7863727,61.2858571 C76.0977956,61.2858571 76.7903808,61.9845714 76.7903808,63.6850952 L76.7679359,64.1700476 L73.3114228,64.1700476 C73.3114228,65.3664762 73.654509,66.001381 74.7222445,66.001381 C75.4661323,66.001381 76.5851703,65.9120476 76.5851703,65.9120476 L76.5851703,65.9120476 Z M76.1779559,63.6627619 C76.1779559,62.3004286 75.7418838,61.8122857 74.7863727,61.8122857 C73.8308617,61.8122857 73.3114228,62.316381 73.3114228,63.6627619 L76.1779559,63.6627619 Z" id="Shape" fill="#000000"></path>
                <rect id="Rectangle" fill="#000000" x="78.0985972" y="59.1418571" width="1" height="7.30619048"></rect>
                <rect id="Rectangle" fill="#000000" x="80.3462926" y="59.1418571" width="1" height="7.30619048"></rect>
            </g>
        </g>
    </g>
</svg>